<svg width="50" height="72" viewBox="0 0 50 72" fill="none" xmlns="http://www.w3.org/2000/svg"><g clip-path="url(#clip0_439_2121)"><path d="M50 56.574H0V0h37.49L50 12.558v44.016z" fill="#EAEAEA"/><path d="M37.49 0L50 12.558H37.49V0z" fill="#CAC9C9"/><path d="M50 72H0V56.553h50V72z" fill="#D9261C"/><path d="M19.015 59.881c-.313-.083-.98-.125-2.002-.125h-2.71v8.414h1.689v-3.16h1.105c.771 0 1.355-.043 1.751-.126a2.341 2.341 0 001.585-1.235c.188-.356.27-.796.27-1.298s-.166-1.214-.479-1.632c-.333-.419-.73-.691-1.209-.817v-.02zm-.25 3.14a1.138 1.138 0 01-.521.419c-.23.083-.668.125-1.335.125h-.917V61.18h.813c.605 0 1.021 0 1.21.063.27.042.5.167.687.377.188.209.271.46.271.753s-.062.46-.187.649h-.021zm9.258-2.323a2.763 2.763 0 00-1.272-.775c-.376-.104-.897-.167-1.585-.167H22.08v8.414h3.19c.626 0 1.126-.063 1.502-.168.5-.167.896-.376 1.188-.67.396-.376.688-.878.896-1.485.167-.503.25-1.089.25-1.78 0-.69-.083-1.444-.27-1.988a3.962 3.962 0 00-.793-1.36l-.02-.021zm-.834 4.814c-.105.376-.272.648-.438.816-.167.167-.417.272-.689.356-.208.063-.542.083-1.021.083h-1.272V61.2h.75c.689 0 1.147.02 1.398.084.312.063.583.209.792.397.208.189.375.46.48.817.104.355.166.837.166 1.486 0 .648-.062 1.172-.166 1.548v-.02zm5.045-4.333v1.988h3.503v1.424h-3.503v3.579h-1.689v-8.414h5.734v1.423h-4.045z" fill="#fff"/><path d="M13.178 45.963c-.876 0-1.647-.398-2.294-1.214-1.042-1.298-.959-2.763.209-4.019 1.543-1.632 4.879-2.846 8.486-3.683a56.208 56.208 0 002.231-4.752 54.363 54.363 0 001.48-4.04c-1.605-2.846-2.814-5.776-2.793-7.89.02-2.198 1.355-2.825 2.147-3.014 1.543-.356 2.732.23 3.295 1.633.792 1.967.229 5.483-.834 9.063a49.355 49.355 0 005.63 7.639c3.752-.063 7.297.335 9.007 1.57 1.21.879 1.501 2.156.792 3.516-.75 1.423-2.085 1.989-3.753 1.549-2.252-.565-4.754-2.784-6.776-4.94-1.418.042-2.94.168-4.504.356-1.69.21-3.295.46-4.796.796-1.71 3.034-3.67 5.734-5.588 6.865-.667.397-1.293.586-1.897.586l-.042-.021zm5.254-6.886c-2.94.795-5.15 1.8-6.13 2.825-.604.65-.646 1.151-.125 1.821.396.503.938.88 2.043.23 1.252-.732 2.711-2.47 4.191-4.855l.021-.021zM32.32 37.36c1.793 1.758 3.503 2.992 4.858 3.348 1.147.293 1.585-.188 1.877-.711.333-.607.25-.963-.292-1.36-1.064-.754-3.399-1.194-6.443-1.257v-.02zm-7.882-7.221a48.965 48.965 0 01-1.063 2.804 70.124 70.124 0 01-1.668 3.684 46.55 46.55 0 013.586-.544 53.548 53.548 0 013.295-.293 42.551 42.551 0 01-2.169-2.763 57.574 57.574 0 01-1.96-2.888h-.02zM23.02 18.983c-.27.063-.833.188-.854 1.402 0 1.423.667 3.412 1.793 5.588.73-2.867.896-5.19.438-6.362-.209-.545-.522-.838-1.377-.628z" fill="#D9261C"/></g><defs><clipPath id="clip0_439_2121"><path fill="#fff" d="M0 0h50v72H0z"/></clipPath></defs></svg>