<svg width="44" height="44" viewBox="0 0 44 44" fill="none" xmlns="http://www.w3.org/2000/svg"><path d="M16.5 34.833a7.189 7.189 0 01-1.063 3.777 7.278 7.278 0 01-6.27 3.557 7.278 7.278 0 01-6.27-3.557 7.188 7.188 0 01-1.063-3.777A7.331 7.331 0 019.167 27.5a7.331 7.331 0 017.334 7.333z" stroke="url(#paint0_linear_515_4716)" stroke-width="2" stroke-miterlimit="10" stroke-linecap="round" stroke-linejoin="round"/><path d="M6.309 34.832l1.815 1.815 3.905-3.611" stroke="url(#paint1_linear_515_4716)" stroke-width="2" stroke-linecap="round" stroke-linejoin="round"/><path d="M32.545 12.925a8.387 8.387 0 00-1.375-.092H12.837c-.514 0-1.009.037-1.485.11.256-.513.623-.99 1.063-1.43l5.958-5.976a6.462 6.462 0 019.094 0l3.208 3.245a6.186 6.186 0 011.87 4.143z" stroke="url(#paint2_linear_515_4716)" stroke-width="2" stroke-linecap="round" stroke-linejoin="round"/><path d="M40.333 22v9.167c0 5.5-3.667 9.166-9.167 9.166H13.988a6.587 6.587 0 001.448-1.723 7.189 7.189 0 001.063-3.777A7.331 7.331 0 009.166 27.5c-2.2 0-4.162.972-5.5 2.493V22c0-4.987 3.007-8.47 7.682-9.057a9.76 9.76 0 011.485-.11h18.333c.477 0 .935.019 1.375.092 4.73.55 7.792 4.052 7.792 9.075z" stroke="url(#paint3_linear_515_4716)" stroke-width="2" stroke-linecap="round" stroke-linejoin="round"/><path d="M40.333 22.917h-5.5a3.677 3.677 0 00-3.667 3.666 3.677 3.677 0 003.667 3.667h5.5" stroke="url(#paint4_linear_515_4716)" stroke-width="2" stroke-linecap="round" stroke-linejoin="round"/><defs><linearGradient id="paint0_linear_515_4716" x1="1.834" y1="34.833" x2="16.501" y2="34.833" gradientUnits="userSpaceOnUse"><stop stop-color="#B68C74"/><stop offset="1" stop-color="#865F46"/></linearGradient><linearGradient id="paint1_linear_515_4716" x1="6.309" y1="34.842" x2="12.029" y2="34.842" gradientUnits="userSpaceOnUse"><stop stop-color="#B68C74"/><stop offset="1" stop-color="#865F46"/></linearGradient><linearGradient id="paint2_linear_515_4716" x1="11.352" y1="8.305" x2="32.545" y2="8.305" gradientUnits="userSpaceOnUse"><stop stop-color="#B68C74"/><stop offset="1" stop-color="#865F46"/></linearGradient><linearGradient id="paint3_linear_515_4716" x1="3.666" y1="26.583" x2="40.333" y2="26.583" gradientUnits="userSpaceOnUse"><stop stop-color="#B68C74"/><stop offset="1" stop-color="#865F46"/></linearGradient><linearGradient id="paint4_linear_515_4716" x1="31.166" y1="26.583" x2="40.333" y2="26.583" gradientUnits="userSpaceOnUse"><stop stop-color="#B68C74"/><stop offset="1" stop-color="#865F46"/></linearGradient></defs></svg>