<svg width="44" height="44" viewBox="0 0 44 44" fill="none" xmlns="http://www.w3.org/2000/svg"><path d="M14.667 3.667v5.5" stroke="url(#paint0_linear_439_3722)" stroke-width="2" stroke-miterlimit="10" stroke-linecap="round" stroke-linejoin="round"/><path d="M29.333 3.667v5.5" stroke="url(#paint1_linear_439_3722)" stroke-width="2" stroke-miterlimit="10" stroke-linecap="round" stroke-linejoin="round"/><path d="M6.417 16.665h31.166" stroke="url(#paint2_linear_439_3722)" stroke-width="2" stroke-miterlimit="10" stroke-linecap="round" stroke-linejoin="round"/><path d="M40.333 34.833a7.189 7.189 0 01-1.063 3.777A7.278 7.278 0 0133 42.167a7.16 7.16 0 01-4.822-1.834 6.587 6.587 0 01-1.448-1.723 7.188 7.188 0 01-1.063-3.777A7.331 7.331 0 0133 27.5c2.2 0 4.162.972 5.5 2.493a7.333 7.333 0 011.833 4.84z" stroke="url(#paint3_linear_439_3722)" stroke-width="2" stroke-miterlimit="10" stroke-linecap="round" stroke-linejoin="round"/><path d="M30.14 34.833l1.815 1.815 3.905-3.611" stroke="url(#paint4_linear_439_3722)" stroke-width="2" stroke-linecap="round" stroke-linejoin="round"/><path d="M38.5 15.583v14.41A7.303 7.303 0 0033 27.5a7.331 7.331 0 00-7.333 7.333c0 1.375.385 2.677 1.063 3.777a6.58 6.58 0 001.448 1.723H14.667c-6.417 0-9.167-3.666-9.167-9.166V15.583c0-5.5 2.75-9.166 9.167-9.166h14.666c6.417 0 9.167 3.666 9.167 9.166z" stroke="url(#paint5_linear_439_3722)" stroke-width="2" stroke-miterlimit="10" stroke-linecap="round" stroke-linejoin="round"/><path d="M21.992 25.117h.016" stroke="url(#paint6_linear_439_3722)" stroke-width="3" stroke-linecap="round" stroke-linejoin="round"/><path d="M15.206 25.117h.017" stroke="url(#paint7_linear_439_3722)" stroke-width="3" stroke-linecap="round" stroke-linejoin="round"/><path d="M15.206 30.617h.017" stroke="url(#paint8_linear_439_3722)" stroke-width="3" stroke-linecap="round" stroke-linejoin="round"/><defs><linearGradient id="paint0_linear_439_3722" x1="14.667" y1="6.417" x2="15.667" y2="6.417" gradientUnits="userSpaceOnUse"><stop stop-color="#B68C74"/><stop offset="1" stop-color="#865F46"/></linearGradient><linearGradient id="paint1_linear_439_3722" x1="29.333" y1="6.417" x2="30.333" y2="6.417" gradientUnits="userSpaceOnUse"><stop stop-color="#B68C74"/><stop offset="1" stop-color="#865F46"/></linearGradient><linearGradient id="paint2_linear_439_3722" x1="6.417" y1="17.165" x2="37.583" y2="17.165" gradientUnits="userSpaceOnUse"><stop stop-color="#B68C74"/><stop offset="1" stop-color="#865F46"/></linearGradient><linearGradient id="paint3_linear_439_3722" x1="25.667" y1="34.833" x2="40.333" y2="34.833" gradientUnits="userSpaceOnUse"><stop stop-color="#B68C74"/><stop offset="1" stop-color="#865F46"/></linearGradient><linearGradient id="paint4_linear_439_3722" x1="30.14" y1="34.843" x2="35.86" y2="34.843" gradientUnits="userSpaceOnUse"><stop stop-color="#B68C74"/><stop offset="1" stop-color="#865F46"/></linearGradient><linearGradient id="paint5_linear_439_3722" x1="5.5" y1="23.375" x2="38.5" y2="23.375" gradientUnits="userSpaceOnUse"><stop stop-color="#B68C74"/><stop offset="1" stop-color="#865F46"/></linearGradient><linearGradient id="paint6_linear_439_3722" x1="21.085" y1="25.117" x2="22.915" y2="25.117" gradientUnits="userSpaceOnUse"><stop stop-color="#B68C74"/><stop offset="1" stop-color="#865F46"/></linearGradient><linearGradient id="paint7_linear_439_3722" x1="14.3" y1="25.117" x2="16.129" y2="25.117" gradientUnits="userSpaceOnUse"><stop stop-color="#B68C74"/><stop offset="1" stop-color="#865F46"/></linearGradient><linearGradient id="paint8_linear_439_3722" x1="14.3" y1="30.617" x2="16.129" y2="30.617" gradientUnits="userSpaceOnUse"><stop stop-color="#B68C74"/><stop offset="1" stop-color="#865F46"/></linearGradient></defs></svg>