<svg width="44" height="44" viewBox="0 0 44 44" fill="none" xmlns="http://www.w3.org/2000/svg"><path d="M25.667 29.333c0 3.245-1.412 6.179-3.667 8.177a10.873 10.873 0 01-7.333 2.823c-6.068 0-11-4.931-11-11 0-5.06 3.447-9.35 8.103-10.615a11.035 11.035 0 007.334 6.564c.916.256 1.888.385 2.896.385 1.009 0 1.98-.129 2.897-.385a10.98 10.98 0 01.77 4.051z" stroke="url(#paint0_linear_439_3140)" stroke-width="2" stroke-linecap="round" stroke-linejoin="round"/><path d="M33 14.667c0 1.43-.275 2.805-.77 4.051a11.034 11.034 0 01-7.333 6.564 10.76 10.76 0 01-2.897.385 10.76 10.76 0 01-2.897-.385 11.034 11.034 0 01-7.333-6.564 10.987 10.987 0 01-.77-4.051c0-6.069 4.932-11 11-11s11 4.931 11 11z" stroke="url(#paint1_linear_439_3140)" stroke-width="2" stroke-linecap="round" stroke-linejoin="round"/><path d="M40.333 29.333c0 6.069-4.931 11-11 11-2.823 0-5.39-1.063-7.333-2.823a10.903 10.903 0 003.667-8.177c0-1.43-.275-2.805-.77-4.051a11.035 11.035 0 007.333-6.564c4.657 1.265 8.103 5.555 8.103 10.615z" stroke="url(#paint2_linear_439_3140)" stroke-width="2" stroke-linecap="round" stroke-linejoin="round"/><defs><linearGradient id="paint0_linear_439_3140" x1="3.667" y1="29.526" x2="25.667" y2="29.526" gradientUnits="userSpaceOnUse"><stop stop-color="#B68C74"/><stop offset="1" stop-color="#865F46"/></linearGradient><linearGradient id="paint1_linear_439_3140" x1="11" y1="14.667" x2="33" y2="14.667" gradientUnits="userSpaceOnUse"><stop stop-color="#B68C74"/><stop offset="1" stop-color="#865F46"/></linearGradient><linearGradient id="paint2_linear_439_3140" x1="22" y1="29.526" x2="40.333" y2="29.526" gradientUnits="userSpaceOnUse"><stop stop-color="#B68C74"/><stop offset="1" stop-color="#865F46"/></linearGradient></defs></svg>