<svg width="44" height="44" viewBox="0 0 44 44" fill="none" xmlns="http://www.w3.org/2000/svg">
<path d="M16.5003 40.3333H27.5003C36.667 40.3333 40.3337 36.6666 40.3337 27.5V16.5C40.3337 7.33329 36.667 3.66663 27.5003 3.66663H16.5003C7.33366 3.66663 3.66699 7.33329 3.66699 16.5V27.5C3.66699 36.6666 7.33366 40.3333 16.5003 40.3333Z" stroke="url(#paint0_linear_439_3133)" stroke-width="2" stroke-linecap="round" stroke-linejoin="round"/>
<path d="M18.333 31.1667H25.6663C28.6913 31.1667 31.1663 28.6917 31.1663 25.6667V18.3334C31.1663 15.3084 28.6913 12.8334 25.6663 12.8334H18.333C15.308 12.8334 12.833 15.3084 12.833 18.3334V25.6667C12.833 28.6917 15.308 31.1667 18.333 31.1667Z" stroke="url(#paint1_linear_439_3133)" stroke-width="2" stroke-linecap="round" stroke-linejoin="round"/>
<path d="M22 12.8334V31.1667" stroke="url(#paint2_linear_439_3133)" stroke-width="2" stroke-linecap="round" stroke-linejoin="round"/>
<path d="M12.833 22H31.1663" stroke="url(#paint3_linear_439_3133)" stroke-width="2" stroke-linecap="round" stroke-linejoin="round"/>
<defs>
<linearGradient id="paint0_linear_439_3133" x1="3.66699" y1="22" x2="40.3337" y2="22" gradientUnits="userSpaceOnUse">
<stop stop-color="#B68C74"/>
<stop offset="1" stop-color="#865F46"/>
</linearGradient>
<linearGradient id="paint1_linear_439_3133" x1="12.833" y1="22" x2="31.1663" y2="22" gradientUnits="userSpaceOnUse">
<stop stop-color="#B68C74"/>
<stop offset="1" stop-color="#865F46"/>
</linearGradient>
<linearGradient id="paint2_linear_439_3133" x1="22" y1="22" x2="23" y2="22" gradientUnits="userSpaceOnUse">
<stop stop-color="#B68C74"/>
<stop offset="1" stop-color="#865F46"/>
</linearGradient>
<linearGradient id="paint3_linear_439_3133" x1="12.833" y1="22.5" x2="31.1663" y2="22.5" gradientUnits="userSpaceOnUse">
<stop stop-color="#B68C74"/>
<stop offset="1" stop-color="#865F46"/>
</linearGradient>
</defs>
</svg>
