<svg width="44" height="44" viewBox="0 0 44 44" fill="none" xmlns="http://www.w3.org/2000/svg">
<path d="M23.8521 5.35317L34.6688 10.1565C37.7854 11.5315 37.7854 13.8048 34.6688 15.1798L23.8521 19.9832C22.6238 20.5332 20.6071 20.5332 19.3788 19.9832L8.56211 15.1798C5.44544 13.8048 5.44544 11.5315 8.56211 10.1565L19.3788 5.35317C20.6071 4.80317 22.6238 4.80317 23.8521 5.35317Z" stroke="url(#paint0_linear_439_3125)" stroke-width="2" stroke-linecap="round" stroke-linejoin="round"/>
<path d="M5.5 20.1666C5.5 21.7066 6.655 23.485 8.06667 24.1083L20.515 29.645C21.4683 30.0666 22.55 30.0666 23.485 29.645L35.9333 24.1083C37.345 23.485 38.5 21.7066 38.5 20.1666" stroke="url(#paint1_linear_439_3125)" stroke-width="2" stroke-linecap="round" stroke-linejoin="round"/>
<path d="M5.5 29.3334C5.5 31.0384 6.50833 32.5784 8.06667 33.275L20.515 38.8117C21.4683 39.2334 22.55 39.2334 23.485 38.8117L35.9333 33.275C37.4917 32.5784 38.5 31.0384 38.5 29.3334" stroke="url(#paint2_linear_439_3125)" stroke-width="2" stroke-linecap="round" stroke-linejoin="round"/>
<defs>
<linearGradient id="paint0_linear_439_3125" x1="6.22461" y1="12.6682" x2="37.0063" y2="12.6682" gradientUnits="userSpaceOnUse">
<stop stop-color="#B68C74"/>
<stop offset="1" stop-color="#865F46"/>
</linearGradient>
<linearGradient id="paint1_linear_439_3125" x1="5.5" y1="25.0639" x2="38.5" y2="25.0639" gradientUnits="userSpaceOnUse">
<stop stop-color="#B68C74"/>
<stop offset="1" stop-color="#865F46"/>
</linearGradient>
<linearGradient id="paint2_linear_439_3125" x1="5.5" y1="34.2307" x2="38.5" y2="34.2307" gradientUnits="userSpaceOnUse">
<stop stop-color="#B68C74"/>
<stop offset="1" stop-color="#865F46"/>
</linearGradient>
</defs>
</svg>
