<svg width="44" height="44" viewBox="0 0 44 44" fill="none" xmlns="http://www.w3.org/2000/svg"><path d="M23.852 5.353l10.817 4.803c3.116 1.375 3.116 3.649 0 5.024l-10.817 4.803c-1.228.55-3.245.55-4.473 0L8.562 15.18c-3.117-1.375-3.117-3.649 0-5.024L19.38 5.353c1.228-.55 3.245-.55 4.473 0z" stroke="url(#paint0_linear_439_3125)" stroke-width="2" stroke-linecap="round" stroke-linejoin="round"/><path d="M5.5 20.167c0 1.54 1.155 3.318 2.567 3.941l12.448 5.537a3.645 3.645 0 002.97 0l12.448-5.537c1.412-.623 2.567-2.401 2.567-3.941" stroke="url(#paint1_linear_439_3125)" stroke-width="2" stroke-linecap="round" stroke-linejoin="round"/><path d="M5.5 29.333a4.321 4.321 0 002.567 3.942l12.448 5.537a3.644 3.644 0 002.97 0l12.448-5.537a4.321 4.321 0 002.567-3.942" stroke="url(#paint2_linear_439_3125)" stroke-width="2" stroke-linecap="round" stroke-linejoin="round"/><defs><linearGradient id="paint0_linear_439_3125" x1="6.225" y1="12.668" x2="37.006" y2="12.668" gradientUnits="userSpaceOnUse"><stop stop-color="#B68C74"/><stop offset="1" stop-color="#865F46"/></linearGradient><linearGradient id="paint1_linear_439_3125" x1="5.5" y1="25.064" x2="38.5" y2="25.064" gradientUnits="userSpaceOnUse"><stop stop-color="#B68C74"/><stop offset="1" stop-color="#865F46"/></linearGradient><linearGradient id="paint2_linear_439_3125" x1="5.5" y1="34.231" x2="38.5" y2="34.231" gradientUnits="userSpaceOnUse"><stop stop-color="#B68C74"/><stop offset="1" stop-color="#865F46"/></linearGradient></defs></svg>