<svg width="44" height="44" viewBox="0 0 44 44" fill="none" xmlns="http://www.w3.org/2000/svg"><path d="M39.362 34.833V9.167c0-3.667-1.834-5.5-5.5-5.5h-7.334c-3.666 0-5.5 1.833-5.5 5.5v25.666c0 3.667 1.834 5.5 5.5 5.5h7.334c3.666 0 5.5-1.833 5.5-5.5z" stroke="url(#paint0_linear_439_3714)" stroke-width="2" stroke-linecap="round"/><path d="M21.028 11h9.167" stroke="url(#paint1_linear_439_3714)" stroke-width="2" stroke-linecap="round"/><path d="M21.028 33h7.334" stroke="url(#paint2_linear_439_3714)" stroke-width="2" stroke-linecap="round"/><path d="M21.028 25.575l9.167.092" stroke="url(#paint3_linear_439_3714)" stroke-width="2" stroke-linecap="round"/><path d="M21.028 18.333h5.5" stroke="url(#paint4_linear_439_3714)" stroke-width="2" stroke-linecap="round"/><path d="M10.065 3.667c-2.988 0-5.427 2.438-5.427 5.408v23.76c0 .825.349 2.072.77 2.787l1.504 2.493c1.723 2.878 4.565 2.878 6.288 0l1.503-2.493c.422-.715.77-1.962.77-2.787V9.075c0-2.97-2.438-5.408-5.408-5.408z" stroke="url(#paint5_linear_439_3714)" stroke-width="2" stroke-linecap="round"/><path d="M15.473 12.833H4.638" stroke="url(#paint6_linear_439_3714)" stroke-width="2" stroke-linecap="round"/><defs><linearGradient id="paint0_linear_439_3714" x1="21.028" y1="22" x2="39.362" y2="22" gradientUnits="userSpaceOnUse"><stop stop-color="#B68C74"/><stop offset="1" stop-color="#865F46"/></linearGradient><linearGradient id="paint1_linear_439_3714" x1="21.028" y1="11.5" x2="30.195" y2="11.5" gradientUnits="userSpaceOnUse"><stop stop-color="#B68C74"/><stop offset="1" stop-color="#865F46"/></linearGradient><linearGradient id="paint2_linear_439_3714" x1="21.028" y1="33.5" x2="28.362" y2="33.5" gradientUnits="userSpaceOnUse"><stop stop-color="#B68C74"/><stop offset="1" stop-color="#865F46"/></linearGradient><linearGradient id="paint3_linear_439_3714" x1="21.028" y1="25.621" x2="30.195" y2="25.621" gradientUnits="userSpaceOnUse"><stop stop-color="#B68C74"/><stop offset="1" stop-color="#865F46"/></linearGradient><linearGradient id="paint4_linear_439_3714" x1="21.028" y1="18.833" x2="26.528" y2="18.833" gradientUnits="userSpaceOnUse"><stop stop-color="#B68C74"/><stop offset="1" stop-color="#865F46"/></linearGradient><linearGradient id="paint5_linear_439_3714" x1="4.638" y1="21.97" x2="15.473" y2="21.97" gradientUnits="userSpaceOnUse"><stop stop-color="#B68C74"/><stop offset="1" stop-color="#865F46"/></linearGradient><linearGradient id="paint6_linear_439_3714" x1="4.638" y1="13.333" x2="15.473" y2="13.333" gradientUnits="userSpaceOnUse"><stop stop-color="#B68C74"/><stop offset="1" stop-color="#865F46"/></linearGradient></defs></svg>