<svg width="44" height="44" viewBox="0 0 44 44" fill="none" xmlns="http://www.w3.org/2000/svg"><path d="M11 18.333v-3.666c0-6.069 1.833-11 11-11s11 4.931 11 11v3.666" stroke="url(#paint0_linear_439_1901)" stroke-width="2" stroke-linecap="round" stroke-linejoin="round"/><path d="M31.166 40.333H12.833c-7.334 0-9.167-1.833-9.167-9.166V27.5c0-7.333 1.833-9.167 9.167-9.167h18.333c7.333 0 9.167 1.834 9.167 9.167v3.667c0 7.333-1.834 9.166-9.167 9.166z" stroke="url(#paint1_linear_439_1901)" stroke-width="2" stroke-linecap="round" stroke-linejoin="round"/><path d="M29.326 29.333h.017" stroke="url(#paint2_linear_439_1901)" stroke-width="3" stroke-linecap="round" stroke-linejoin="round"/><path d="M21.992 29.333h.017" stroke="url(#paint3_linear_439_1901)" stroke-width="3" stroke-linecap="round" stroke-linejoin="round"/><path d="M14.657 29.333h.016" stroke="url(#paint4_linear_439_1901)" stroke-width="3" stroke-linecap="round" stroke-linejoin="round"/><defs><linearGradient id="paint0_linear_439_1901" x1="11" y1="11" x2="33" y2="11" gradientUnits="userSpaceOnUse"><stop stop-color="#B68C74"/><stop offset="1" stop-color="#865F46"/></linearGradient><linearGradient id="paint1_linear_439_1901" x1="3.666" y1="29.333" x2="40.333" y2="29.333" gradientUnits="userSpaceOnUse"><stop stop-color="#B68C74"/><stop offset="1" stop-color="#865F46"/></linearGradient><linearGradient id="paint2_linear_439_1901" x1="28.42" y1="29.333" x2="30.25" y2="29.333" gradientUnits="userSpaceOnUse"><stop stop-color="#B68C74"/><stop offset="1" stop-color="#865F46"/></linearGradient><linearGradient id="paint3_linear_439_1901" x1="21.086" y1="29.333" x2="22.916" y2="29.333" gradientUnits="userSpaceOnUse"><stop stop-color="#B68C74"/><stop offset="1" stop-color="#865F46"/></linearGradient><linearGradient id="paint4_linear_439_1901" x1="13.75" y1="29.333" x2="15.58" y2="29.333" gradientUnits="userSpaceOnUse"><stop stop-color="#B68C74"/><stop offset="1" stop-color="#865F46"/></linearGradient></defs></svg>