<svg width="44" height="44" viewBox="0 0 44 44" fill="none" xmlns="http://www.w3.org/2000/svg"><path d="M16.5 40.333h11c9.167 0 12.834-3.666 12.834-12.833v-11c0-9.167-3.667-12.833-12.834-12.833h-11C7.334 3.667 3.667 7.333 3.667 16.5v11c0 9.167 3.667 12.833 12.833 12.833z" stroke="url(#paint0_linear_439_3133)" stroke-width="2" stroke-linecap="round" stroke-linejoin="round"/><path d="M18.333 31.167h7.333c3.025 0 5.5-2.475 5.5-5.5v-7.334c0-3.025-2.475-5.5-5.5-5.5h-7.333c-3.025 0-5.5 2.475-5.5 5.5v7.334c0 3.025 2.475 5.5 5.5 5.5z" stroke="url(#paint1_linear_439_3133)" stroke-width="2" stroke-linecap="round" stroke-linejoin="round"/><path d="M22 12.833v18.334" stroke="url(#paint2_linear_439_3133)" stroke-width="2" stroke-linecap="round" stroke-linejoin="round"/><path d="M12.833 22h18.333" stroke="url(#paint3_linear_439_3133)" stroke-width="2" stroke-linecap="round" stroke-linejoin="round"/><defs><linearGradient id="paint0_linear_439_3133" x1="3.667" y1="22" x2="40.334" y2="22" gradientUnits="userSpaceOnUse"><stop stop-color="#B68C74"/><stop offset="1" stop-color="#865F46"/></linearGradient><linearGradient id="paint1_linear_439_3133" x1="12.833" y1="22" x2="31.166" y2="22" gradientUnits="userSpaceOnUse"><stop stop-color="#B68C74"/><stop offset="1" stop-color="#865F46"/></linearGradient><linearGradient id="paint2_linear_439_3133" x1="22" y1="22" x2="23" y2="22" gradientUnits="userSpaceOnUse"><stop stop-color="#B68C74"/><stop offset="1" stop-color="#865F46"/></linearGradient><linearGradient id="paint3_linear_439_3133" x1="12.833" y1="22.5" x2="31.166" y2="22.5" gradientUnits="userSpaceOnUse"><stop stop-color="#B68C74"/><stop offset="1" stop-color="#865F46"/></linearGradient></defs></svg>