<svg width="44" height="44" viewBox="0 0 44 44" fill="none" xmlns="http://www.w3.org/2000/svg"><path d="M19.709 41.25h4.62c1.76 0 2.896-1.247 2.566-2.768l-.752-3.319h-8.25l-.751 3.319c-.33 1.43.916 2.768 2.567 2.768z" stroke="url(#paint0_linear_439_3706)" stroke-width="2" stroke-linecap="round" stroke-linejoin="round"/><path d="M26.143 35.145l3.172-2.823c1.778-1.577 1.852-2.677.44-4.455l-5.592-7.095c-1.173-1.485-3.098-1.485-4.271 0L14.3 27.867c-1.412 1.778-1.412 2.933.44 4.455l3.172 2.823" stroke="url(#paint1_linear_439_3706)" stroke-width="2" stroke-linecap="round" stroke-linejoin="round"/><path d="M22.018 20.387v4.638" stroke="url(#paint2_linear_439_3706)" stroke-width="2" stroke-linecap="round" stroke-linejoin="round"/><path d="M22.953 9.167H21.12a1.839 1.839 0 01-1.833-1.834V5.5c0-1.008.825-1.833 1.833-1.833h1.833c1.009 0 1.834.825 1.834 1.833v1.833a1.839 1.839 0 01-1.834 1.834z" stroke="url(#paint3_linear_439_3706)" stroke-width="2" stroke-linecap="round" stroke-linejoin="round"/><path d="M5.995 25.978h1.833a1.839 1.839 0 001.834-1.833v-1.833a1.839 1.839 0 00-1.834-1.834H5.995a1.839 1.839 0 00-1.833 1.834v1.833c0 1.008.825 1.833 1.833 1.833z" stroke="url(#paint4_linear_439_3706)" stroke-width="2" stroke-linecap="round" stroke-linejoin="round"/><path d="M38.005 25.978h-1.833a1.839 1.839 0 01-1.834-1.833v-1.833c0-1.009.825-1.834 1.834-1.834h1.833c1.008 0 1.833.825 1.833 1.834v1.833a1.839 1.839 0 01-1.833 1.833z" stroke="url(#paint5_linear_439_3706)" stroke-width="2" stroke-linecap="round" stroke-linejoin="round"/><path d="M19.287 6.527c-6.985.825-12.412 6.746-12.412 13.951" stroke="url(#paint6_linear_439_3706)" stroke-width="2" stroke-linecap="round" stroke-linejoin="round"/><path d="M37.125 20.478c0-7.186-5.39-13.09-12.338-13.951" stroke="url(#paint7_linear_439_3706)" stroke-width="2" stroke-linecap="round" stroke-linejoin="round"/><defs><linearGradient id="paint0_linear_439_3706" x1="17.089" y1="38.207" x2="26.952" y2="38.207" gradientUnits="userSpaceOnUse"><stop stop-color="#B68C74"/><stop offset="1" stop-color="#865F46"/></linearGradient><linearGradient id="paint1_linear_439_3706" x1="13.291" y1="27.401" x2="30.739" y2="27.401" gradientUnits="userSpaceOnUse"><stop stop-color="#B68C74"/><stop offset="1" stop-color="#865F46"/></linearGradient><linearGradient id="paint2_linear_439_3706" x1="22.018" y1="22.706" x2="23.018" y2="22.706" gradientUnits="userSpaceOnUse"><stop stop-color="#B68C74"/><stop offset="1" stop-color="#865F46"/></linearGradient><linearGradient id="paint3_linear_439_3706" x1="19.287" y1="6.417" x2="24.787" y2="6.417" gradientUnits="userSpaceOnUse"><stop stop-color="#B68C74"/><stop offset="1" stop-color="#865F46"/></linearGradient><linearGradient id="paint4_linear_439_3706" x1="4.162" y1="23.228" x2="9.662" y2="23.228" gradientUnits="userSpaceOnUse"><stop stop-color="#B68C74"/><stop offset="1" stop-color="#865F46"/></linearGradient><linearGradient id="paint5_linear_439_3706" x1="34.338" y1="23.228" x2="39.838" y2="23.228" gradientUnits="userSpaceOnUse"><stop stop-color="#B68C74"/><stop offset="1" stop-color="#865F46"/></linearGradient><linearGradient id="paint6_linear_439_3706" x1="6.875" y1="13.503" x2="19.287" y2="13.503" gradientUnits="userSpaceOnUse"><stop stop-color="#B68C74"/><stop offset="1" stop-color="#865F46"/></linearGradient><linearGradient id="paint7_linear_439_3706" x1="24.787" y1="13.503" x2="37.125" y2="13.503" gradientUnits="userSpaceOnUse"><stop stop-color="#B68C74"/><stop offset="1" stop-color="#865F46"/></linearGradient></defs></svg>