<svg width="453" height="453" viewBox="0 0 453 453" fill="none" xmlns="http://www.w3.org/2000/svg"><path d="M218.091 66.323a155.209 155.209 0 0141.509 96.393c25.925-27.768 70.326-35.331 104.978-11.001l-10.808 15.397c-36.841-25.869-88.077-4.647-95.838 39.694l-3.945 22.544-1.47 11.772a126.915 126.915 0 00.344 34.087 126.998 126.998 0 0038.946 74.437l2.963 2.774-12.847 13.743-2.967-2.769a145.808 145.808 0 01-44.624-84.897c-15.175-59.292-71.016-98.959-132.046-93.701l-28.046 2.42-1.617-18.745 28.051-2.416c54.733-4.715 105.834 21.982 133.971 66.299l5.397-43.121A136.403 136.403 0 00204.343 79.17l-12.296-13.16 13.743-12.842 12.301 13.155z" fill="url(#paint0_linear_405_5285)"/><path d="M452.316 226.158L226.158 452.315 0 226.158 226.158.001l226.158 226.157zm-412.406 0l186.248 186.247 186.248-186.247L226.158 39.911 39.91 226.158z" fill="url(#paint1_linear_405_5285)"/><defs><linearGradient id="paint0_linear_405_5285" x1="75.312" y1="193.65" x2="359.174" y2="193.65" gradientUnits="userSpaceOnUse"><stop stop-color="#B58F7A"/><stop offset="1" stop-color="#96725F"/></linearGradient><linearGradient id="paint1_linear_405_5285" x1="0" y1="226.158" x2="452.316" y2="226.158" gradientUnits="userSpaceOnUse"><stop stop-color="#BE9883"/><stop offset="1" stop-color="#8B6855"/></linearGradient></defs></svg>="226.158" gradientUnits="userSpaceOnUse">
<stop stop-color="#BE9883"/>
<stop offset="1" stop-color="#8B6855"/>
</linearGradient>
</defs>
</svg>
