<svg width="592" height="593" viewBox="0 0 592 593" fill="none" xmlns="http://www.w3.org/2000/svg">
<g opacity="0.2">
<path d="M285.307 86.9109C317.769 121.701 336.719 166.469 339.609 213.227C373.525 176.839 431.61 166.927 476.943 198.811L462.804 218.987C414.608 185.088 347.581 212.897 337.428 271.003L332.267 300.545L330.344 315.972C328.469 330.991 328.662 346.004 330.794 360.639C336.177 397.577 353.891 432.103 381.744 458.184L385.62 461.819L368.813 479.828L364.931 476.199C333.138 446.429 312.863 407.073 306.555 364.949C286.703 287.251 213.651 235.27 133.811 242.16L97.121 245.332L95.0059 220.768L131.702 217.602C203.304 211.424 270.155 246.408 306.963 304.481L314.024 247.975C320.594 195.339 303.483 142.499 267.323 103.746L251.237 86.5016L269.215 69.6724L285.307 86.9109Z" fill="#BDBDBD"/>
<path d="M591.722 296.361L295.861 592.723L0 296.361L295.861 -4.19055e-05L591.722 296.361ZM52.2113 296.361L295.861 540.423L539.511 296.361L295.861 52.2996L52.2113 296.361Z" fill="#BDBDBD"/>
</g>
</svg>
