<svg width="592" height="593" viewBox="0 0 592 593" fill="none" xmlns="http://www.w3.org/2000/svg"><g opacity=".2" fill="#BDBDBD"><path d="M285.307 86.91c32.462 34.791 51.412 79.559 54.302 126.317 33.916-36.388 92.001-46.3 137.334-14.416l-14.139 20.176c-48.196-33.899-115.223-6.09-125.376 52.016l-5.161 29.542-1.923 15.427a166.583 166.583 0 00.45 44.667c5.383 36.938 23.097 71.464 50.95 97.545l3.876 3.635-16.807 18.009-3.882-3.629c-31.793-29.77-52.068-69.126-58.376-111.25-19.852-77.698-92.904-129.679-172.744-122.789l-36.69 3.172-2.115-24.564 36.696-3.166c71.602-6.178 138.453 28.806 175.261 86.879l7.061-56.506c6.57-52.636-10.541-105.476-46.701-144.229l-16.086-17.244 17.978-16.83 16.092 17.239z"/><path d="M591.722 296.361L295.861 592.723 0 296.361 295.861 0l295.861 296.361zm-539.51 0L295.86 540.423l243.65-244.062L295.861 52.3 52.211 296.36z"/></g></svg>.19055e-05L591.722 296.361ZM52.2113 296.361L295.861 540.423L539.511 296.361L295.861 52.2996L52.2113 296.361Z" fill="#BDBDBD"/>
</g>
</svg>
