<svg width="140" height="81" viewBox="0 0 140 81" fill="none" xmlns="http://www.w3.org/2000/svg"><path d="M69.16 7.365a17.263 17.263 0 014.594 10.705c2.87-3.084 7.785-3.924 11.621-1.222l-1.196 1.71c-4.078-2.873-9.75-.516-10.61 4.408l-.436 2.504-.163 1.307a14.118 14.118 0 004.35 12.052l.328.308-1.422 1.527-.329-.308a16.21 16.21 0 01-4.94-9.428c-1.68-6.585-7.861-10.99-14.617-10.406l-3.105.269-.179-2.082 3.105-.268c6.06-.524 11.716 2.441 14.83 7.363l.598-4.79a15.179 15.179 0 00-3.952-12.222l-1.36-1.461 1.52-1.427 1.362 1.461z" fill="url(#paint0_linear_215_1672)"/><path d="M95.088 25.116L70.053 50.23 45.017 25.115 70.052 0l25.036 25.116zm-45.653 0l20.617 20.682 20.617-20.683L70.052 4.432 49.434 25.115z" fill="url(#paint1_linear_215_1672)"/><g clip-path="url(#clip0_215_1672)" fill="#FEFEFE"><path d="M129.32 57.627c2.886 0 5.391 1.102 7.503 3.305 2.118 2.204 3.177 4.953 3.177 8.252 0 3.396-1.064 6.212-3.199 8.455-2.129 2.242-4.713 3.361-7.744 3.361-3.059 0-5.631-1.096-7.715-3.283-2.085-2.186-3.127-5.014-3.127-8.488 0-3.547 1.205-6.441 3.608-8.685 2.09-1.944 4.589-2.917 7.497-2.917zm-.313 1.18c-1.984 0-3.581.743-4.78 2.226-1.496 1.85-2.247 4.554-2.247 8.117 0 3.649.773 6.46 2.326 8.427 1.193 1.495 2.762 2.243 4.718 2.243 2.09 0 3.81-.821 5.171-2.457 1.362-1.641 2.04-4.221 2.04-7.751 0-3.828-.751-6.684-2.247-8.562-1.199-1.495-2.858-2.242-4.981-2.242zm-29.473 9.309v-8.769h4.897c1.16 0 2.012.113 2.566.332a3.32 3.32 0 011.396 1.068c.375.489.706 1.259.991 2.31h.572l-.235-4.924H93.18v.607h.79c.538 0 1.042.13 1.513.394.341.196.566.432.678.708.14.36.213 1.107.213 2.237v14.47c0 1.337-.13 2.18-.393 2.534-.42.534-1.087.804-2.011.804h-.79v.607h9.548v-.607h-.796c-.527 0-1.025-.13-1.502-.394-.347-.196-.577-.432-.683-.708-.14-.36-.213-1.107-.213-2.237V69.5h4.034c.751 0 1.311.101 1.692.31.381.202.678.505.897.916.213.404.325 1.045.336 1.91h.605v-7.588h-.605c-.145 1.237-.431 2.052-.868 2.462-.432.405-1.121.607-2.057.607h-4.034zm-28.598 0v-8.769h4.897c1.16 0 2.012.113 2.567.332.549.22 1.014.579 1.395 1.068.375.489.706 1.259.992 2.31h.571l-.235-4.924H64.582v.607h.79c.538 0 1.042.13 1.513.394.342.196.566.432.678.708.14.36.213 1.107.213 2.237v14.47c0 1.337-.13 2.18-.392 2.534-.42.534-1.087.804-2.012.804h-.79v.607h9.548v-.607h-.796c-.526 0-1.025-.13-1.501-.394-.348-.196-.578-.432-.684-.708-.14-.36-.213-1.107-.213-2.237V69.5h4.035c.75 0 1.31.101 1.692.31.38.202.678.505.896.916.213.404.325 1.045.336 1.91h.606v-7.588h-.606c-.145 1.237-.431 2.052-.868 2.462-.431.405-1.12.607-2.056.607h-4.035zm-30.303.068v-8.837h6.108c1.104 0 1.877.085 2.314.248.544.236.959.573 1.239 1.017.28.444.532 1.26.762 2.445h.638l-.235-4.924H34.28v.607h.79c.925 0 1.58.22 1.978.658.286.326.426 1.197.426 2.614v14.536c0 1.09-.062 1.81-.19 2.164a1.363 1.363 0 01-.718.793 3.12 3.12 0 01-1.495.382h-.79v.607h17.173l1.922-5.599h-.672c-.712 1.372-1.406 2.4-2.085 3.08-.52.518-1.07.867-1.636 1.04-.571.175-1.484.265-2.74.265h-3.77c-.611 0-1.032-.062-1.25-.191a1.04 1.04 0 01-.46-.512c-.084-.213-.129-.815-.129-1.804v-7.375h4.91c.93 0 1.618.112 2.067.331.448.22.773.523.969.906.151.309.308 1.011.46 2.102h.605v-7.791h-.605c-.068 1.27-.382 2.159-.953 2.665-.426.382-1.272.573-2.544.573h-4.909zM9.06 58.133c3.329 0 5.862.377 7.593 1.136 1.737.758 3.133 2.023 4.186 3.794 1.059 1.77 1.586 3.816 1.586 6.132 0 3.114-.942 5.71-2.824 7.802-2.113 2.333-5.33 3.497-9.656 3.497H0v-.607h.835c.941 0 1.608-.304 2-.906.24-.36.36-1.174.36-2.433V62.079c0-1.394-.152-2.266-.46-2.614-.426-.483-1.06-.725-1.9-.725H0v-.607h9.06zm.65 1.248c-.98 0-2.1.157-3.356.477v18.995c1.39.309 2.55.46 3.49.46 2.533 0 4.635-.893 6.31-2.686 1.67-1.788 2.505-4.217 2.505-7.28 0-3.086-.835-5.52-2.505-7.296-1.675-1.782-3.822-2.67-6.444-2.67z"/></g><defs><linearGradient id="paint0_linear_215_1672" x1="53.354" y1="21.505" x2="84.777" y2="21.505" gradientUnits="userSpaceOnUse"><stop stop-color="#B58F7A"/><stop offset="1" stop-color="#96725F"/></linearGradient><linearGradient id="paint1_linear_215_1672" x1="45.017" y1="25.115" x2="95.088" y2="25.114" gradientUnits="userSpaceOnUse"><stop stop-color="#BE9883"/><stop offset="1" stop-color="#8B6855"/></linearGradient><clipPath id="clip0_215_1672"><path fill="#fff" transform="translate(0 57.627)" d="M0 0h140v23.373H0z"/></clipPath></defs></svg>534L53.3754 74.8955H52.703C51.9914 76.267 51.2966 77.2958 50.6185 77.9759C50.0975 78.493 49.5484 78.8417 48.9825 79.0158C48.4109 79.1902 47.4976 79.2801 46.2424 79.2801H42.4713C41.8606 79.2801 41.4404 79.2182 41.2219 79.089C41.0033 78.9653 40.8521 78.791 40.7623 78.5773C40.6783 78.3638 40.6335 77.7624 40.6335 76.773V69.3979H45.5421C46.4721 69.3979 47.1613 69.5104 47.6096 69.7294C48.058 69.9488 48.3828 70.2524 48.579 70.6347C48.7302 70.9437 48.8871 71.6465 49.0385 72.7369H49.6435V64.9459H49.0385C48.9711 66.2163 48.6574 67.1045 48.0859 67.6105C47.6601 67.9927 46.8139 68.1838 45.5421 68.1838H40.6335Z" fill="#FEFEFE"/>
<path d="M9.06055 58.1328C12.3888 58.1328 14.922 58.5096 16.6533 59.2686C18.3901 60.0274 19.7855 61.2919 20.8389 63.0625C21.8979 64.8332 22.4248 66.8794 22.4248 69.1953C22.4248 72.3091 21.4829 74.9059 19.6006 76.9971C17.4881 79.33 14.2711 80.4941 9.94531 80.4941H0V79.8867H0.834961C1.77619 79.8867 2.44278 79.583 2.83496 78.9814C3.07588 78.6217 3.19433 77.8069 3.19434 76.5479V62.0791C3.19434 60.6849 3.04274 59.8135 2.73438 59.4648C2.30871 58.9816 1.6753 58.7402 0.834961 58.7402H0V58.1328H9.06055ZM9.70996 59.3809C8.72965 59.3809 7.60932 59.5381 6.35449 59.8584V78.8525C7.74395 79.1616 8.90355 79.3134 9.84473 79.3135C12.3773 79.3135 14.4788 78.4198 16.1543 76.627C17.8241 74.8393 18.6592 72.4102 18.6592 69.3467C18.6591 66.2609 17.824 63.827 16.1543 62.0508C14.4788 60.2689 12.3323 59.3809 9.70996 59.3809Z" fill="#FEFEFE"/>
</g>
<defs>
<linearGradient id="paint0_linear_215_1672" x1="53.3537" y1="21.5054" x2="84.7772" y2="21.5054" gradientUnits="userSpaceOnUse">
<stop stop-color="#B58F7A"/>
<stop offset="1" stop-color="#96725F"/>
</linearGradient>
<linearGradient id="paint1_linear_215_1672" x1="45.0166" y1="25.1152" x2="95.088" y2="25.1145" gradientUnits="userSpaceOnUse">
<stop stop-color="#BE9883"/>
<stop offset="1" stop-color="#8B6855"/>
</linearGradient>
<clipPath id="clip0_215_1672">
<rect width="140" height="23.3729" fill="white" transform="translate(0 57.627)"/>
</clipPath>
</defs>
</svg>
