<svg width="345" height="345" viewBox="0 0 345 345" fill="none" xmlns="http://www.w3.org/2000/svg"><g clip-path="url(#clip0_490_3480)" fill="#C8A996"><path opacity=".2" d="M172.402 141.399l31 31-31 31-31-31 31-31zm0-70.7l-35.4 35.4-31 31-35.4 35.4 35.4 35.4 31 31 35.4 35.4 35.4-35.4 31-31 35.4-35.4-35.4-35.4-31-31-35.4-35.4z"/><path opacity=".2" d="M172.4 141.4l31 31-31 31-31-31 31-31zm0-141.4l-70.7 70.7-31 31L0 172.4l70.7 70.7 31 31 70.7 70.7 70.7-70.7 31-31 70.7-70.7-70.7-70.7-31-31L172.4 0z"/></g><defs><clipPath id="clip0_490_3480"><path fill="#fff" d="M0 0h344.8v344.8H0z"/></clipPath></defs></svg>1.7 274.1L172.4 344.8L243.1 274.1L274.1 243.1L344.8 172.4L274.1 101.7L243.1 70.7L172.4 0Z" fill="#C8A996"/>
</g>
<defs>
    <clipPath id="clip0_490_3480">
        <rect width="344.8" height="344.8" fill="white"/>
    </clipPath>
</defs>
</svg>