<svg width="17" height="17" viewBox="0 0 17 17" fill="none" xmlns="http://www.w3.org/2000/svg"><path fill-rule="evenodd" clip-rule="evenodd" d="M8.155 16.18h-.003a8.081 8.081 0 01-3.865-.985L0 16.32l1.147-4.19a8.072 8.072 0 01-1.08-4.044C.07 3.628 3.698 0 8.156 0c2.163 0 4.194.843 5.72 2.372a8.038 8.038 0 012.367 5.72c-.002 4.459-3.628 8.086-8.087 8.088zm-3.67-2.449l.246.146a6.712 6.712 0 003.421.937h.003c3.705 0 6.72-3.015 6.721-6.722a6.681 6.681 0 00-1.966-4.755 6.676 6.676 0 00-4.752-1.971 6.731 6.731 0 00-6.725 6.72 6.71 6.71 0 001.028 3.578l.16.254-.68 2.48 2.545-.667zm7.467-3.897c.141.068.236.114.277.182.05.084.05.489-.118.96-.168.473-.975.904-1.364.962a2.77 2.77 0 01-1.272-.08c-.294-.094-.67-.218-1.152-.426-1.895-.818-3.175-2.654-3.417-3.001a2.545 2.545 0 00-.035-.05l-.002-.002c-.107-.143-.823-1.1-.823-2.089 0-.93.457-1.418.667-1.643l.04-.042a.742.742 0 01.539-.253c.134 0 .27.001.387.007h.045c.118 0 .265-.001.41.347l.223.542c.174.423.366.89.4.958.05.101.084.22.017.354l-.029.058c-.05.103-.088.18-.173.28-.034.039-.07.081-.104.124-.07.084-.14.17-.2.23-.1.1-.206.21-.088.412.118.202.523.864 1.124 1.4a5.21 5.21 0 001.491.942l.134.06c.202.102.32.085.438-.05s.505-.59.64-.792c.134-.203.269-.169.454-.102.185.068 1.179.557 1.38.658l.111.054z" fill="currentColor"/></svg>