<svg width="32" height="32" viewBox="0 0 32 32" fill="none" xmlns="http://www.w3.org/2000/svg">
<path d="M1.33333 29.3335H30.6667" stroke="#E7BDA9" stroke-width="1.5" stroke-miterlimit="10" stroke-linecap="round" stroke-linejoin="round"/>
<path d="M26.3734 29.3466V23.3999" stroke="#E7BDA9" stroke-width="1.5" stroke-miterlimit="10" stroke-linecap="round" stroke-linejoin="round"/>
<path d="M26.4001 14.52C24.7735 14.52 23.4668 15.8267 23.4668 17.4534V20.48C23.4668 22.1066 24.7735 23.4133 26.4001 23.4133C28.0268 23.4133 29.3335 22.1066 29.3335 20.48V17.4534C29.3335 15.8267 28.0268 14.52 26.4001 14.52Z" stroke="#E7BDA9" stroke-width="1.5" stroke-miterlimit="10" stroke-linecap="round" stroke-linejoin="round"/>
<path d="M2.80013 29.3332V8.03988C2.80013 5.35988 4.13353 4.01318 6.78686 4.01318H15.0935C17.7468 4.01318 19.0668 5.35988 19.0668 8.03988V29.3332" stroke="#E7BDA9" stroke-width="1.5" stroke-miterlimit="10" stroke-linecap="round" stroke-linejoin="round"/>
<path d="M7.7334 11H14.3334" stroke="white" stroke-width="1.5" stroke-miterlimit="10" stroke-linecap="round" stroke-linejoin="round"/>
<path d="M7.7334 16H14.3334" stroke="white" stroke-width="1.5" stroke-miterlimit="10" stroke-linecap="round" stroke-linejoin="round"/>
<path d="M11 29.3335V24.3335" stroke="#E7BDA9" stroke-width="1.5" stroke-miterlimit="10" stroke-linecap="round" stroke-linejoin="round"/>
</svg>