<svg width="453" height="453" viewBox="0 0 453 453" fill="none" xmlns="http://www.w3.org/2000/svg">
<path d="M218.091 66.3229C242.905 92.8715 257.39 127.035 259.6 162.716C285.525 134.948 329.926 127.385 364.578 151.715L353.77 167.112C316.929 141.243 265.693 162.465 257.932 206.806L253.987 229.35L252.517 241.122C251.084 252.584 251.231 264.04 252.861 275.209C256.976 303.397 270.516 329.744 291.807 349.646L294.77 352.42L281.923 366.163L278.956 363.394C254.653 340.676 239.154 310.643 234.332 278.497C219.157 219.205 163.316 179.538 102.286 184.796L74.2399 187.216L72.623 168.471L100.674 166.055C155.407 161.34 206.508 188.037 234.645 232.354L240.042 189.233C245.064 149.066 231.984 108.743 204.343 79.1702L192.047 66.0106L205.79 53.168L218.091 66.3229Z" fill="url(#paint0_linear_405_5285)"/>
<path d="M452.316 226.158L226.158 452.315L0 226.158L226.158 0.00115666L452.316 226.158ZM39.9102 226.158L226.158 412.405L412.406 226.158L226.158 39.9112L39.9102 226.158Z" fill="url(#paint1_linear_405_5285)"/>
<defs>
<linearGradient id="paint0_linear_405_5285" x1="75.3119" y1="193.65" x2="359.174" y2="193.65" gradientUnits="userSpaceOnUse">
<stop stop-color="#B58F7A"/>
<stop offset="1" stop-color="#96725F"/>
</linearGradient>
<linearGradient id="paint1_linear_405_5285" x1="0" y1="226.158" x2="452.316" y2="226.158" gradientUnits="userSpaceOnUse">
<stop stop-color="#BE9883"/>
<stop offset="1" stop-color="#8B6855"/>
</linearGradient>
</defs>
</svg>