<svg width="32" height="32" viewBox="0 0 32 32" fill="none" xmlns="http://www.w3.org/2000/svg"><path d="M1.333 29.334h29.334m-4.294.013V23.4m.027-8.88a2.925 2.925 0 00-2.933 2.933v3.027a2.925 2.925 0 002.933 2.933 2.925 2.925 0 002.934-2.933v-3.027A2.925 2.925 0 0026.4 14.52zM2.8 29.333V8.04c0-2.68 1.334-4.027 3.987-4.027h8.307c2.653 0 3.973 1.347 3.973 4.027v21.293" stroke="#E7BDA9" stroke-width="1.5" stroke-miterlimit="10" stroke-linecap="round" stroke-linejoin="round"/><path d="M7.733 11h6.6m-6.6 5h6.6" stroke="#fff" stroke-width="1.5" stroke-miterlimit="10" stroke-linecap="round" stroke-linejoin="round"/><path d="M11 29.334v-5" stroke="#E7BDA9" stroke-width="1.5" stroke-miterlimit="10" stroke-linecap="round" stroke-linejoin="round"/></svg>13 5.35988 4.13353 4.01318 6.78686 4.01318H15.0935C17.7468 4.01318 19.0668 5.35988 19.0668 8.03988V29.3332" stroke="#E7BDA9" stroke-width="1.5" stroke-miterlimit="10" stroke-linecap="round" stroke-linejoin="round"/>
<path d="M7.7334 11H14.3334" stroke="white" stroke-width="1.5" stroke-miterlimit="10" stroke-linecap="round" stroke-linejoin="round"/>
<path d="M7.7334 16H14.3334" stroke="white" stroke-width="1.5" stroke-miterlimit="10" stroke-linecap="round" stroke-linejoin="round"/>
<path d="M11 29.3335V24.3335" stroke="#E7BDA9" stroke-width="1.5" stroke-miterlimit="10" stroke-linecap="round" stroke-linejoin="round"/>
</svg>
