<svg width="32" height="32" viewBox="0 0 32 32" fill="none" xmlns="http://www.w3.org/2000/svg"><path d="M28.627 25.333V6.667c0-2.667-1.334-4-4-4h-5.334c-2.666 0-4 1.333-4 4v18.666c0 2.667 1.334 4 4 4h5.334c2.666 0 4-1.333 4-4z" stroke="#E7BDA9" stroke-width="1.5" stroke-linecap="round"/><path d="M15.293 8h6.667m-6.667 16h5.334m-5.334-5.4l6.667.067m-6.667-5.333h4" stroke="#fff" stroke-width="1.5" stroke-linecap="round"/><path d="M7.32 2.667c-2.173 0-3.947 1.773-3.947 3.933v17.28c0 .6.254 1.507.56 2.027l1.094 1.813c1.253 2.093 3.32 2.093 4.573 0l1.093-1.813c.307-.52.56-1.427.56-2.027V6.6A3.95 3.95 0 007.32 2.667zm3.933 6.667h-7.88" stroke="#E7BDA9" stroke-width="1.5" stroke-linecap="round"/></svg>3335H19.2933" stroke="white" stroke-width="1.5" stroke-linecap="round"/>
<path d="M7.32002 2.6665C5.14669 2.6665 3.37335 4.43984 3.37335 6.59984V23.8798C3.37335 24.4798 3.62669 25.3865 3.93335 25.9065L5.02669 27.7198C6.28002 29.8132 8.34669 29.8132 9.60002 27.7198L10.6934 25.9065C11 25.3865 11.2534 24.4798 11.2534 23.8798V6.59984C11.2534 4.43984 9.48002 2.6665 7.32002 2.6665Z" stroke="#E7BDA9" stroke-width="1.5" stroke-linecap="round"/>
<path d="M11.2534 9.3335H3.37335" stroke="#E7BDA9" stroke-width="1.5" stroke-linecap="round"/>
</svg>
