<svg width="32" height="32" viewBox="0 0 32 32" fill="none" xmlns="http://www.w3.org/2000/svg"><path d="M29.333 22v4c0 2-1.333 3.333-3.333 3.333H8c.547 0 1.107-.08 1.627-.253a5.99 5.99 0 00.44-.173c.466-.187.92-.454 1.32-.8.12-.094.253-.214.373-.334l.053-.053 9.067-9.053H26c2 0 3.333 1.333 3.333 3.333z" stroke="#E7BDA9" stroke-width="1.5" stroke-linecap="round" stroke-linejoin="round"/><path d="M24.493 15.053l-3.613 3.614-9.067 9.053a5.343 5.343 0 001.52-3.72V11.12l3.614-3.613c1.413-1.414 3.306-1.414 4.72 0l2.826 2.826c1.414 1.414 1.414 3.307 0 4.72z" stroke="#fff" stroke-width="1.5" stroke-linecap="round" stroke-linejoin="round"/><path d="M13.333 6v18a5.34 5.34 0 01-1.52 3.72l-.053.053c-.12.12-.253.24-.373.334-.4.346-.854.613-1.32.8-.147.066-.294.12-.44.173-.52.173-1.08.253-1.627.253-.36 0-.72-.04-1.067-.106a7.225 7.225 0 01-.52-.134 4.825 4.825 0 01-.613-.227c0-.013 0-.013-.013 0a6.728 6.728 0 01-1.067-.653l-.013-.013a3.656 3.656 0 01-.48-.427c-.147-.16-.294-.32-.44-.493a6.723 6.723 0 01-.654-1.067c.014-.013.014-.013 0-.013 0 0 0-.014-.013-.027a7.608 7.608 0 01-.213-.586c-.054-.174-.094-.347-.134-.52A5.674 5.674 0 012.667 24V6C2.667 4 4 2.667 6 2.667h4C12 2.667 13.333 4 13.333 6z" stroke="#E7BDA9" stroke-width="1.5" stroke-linecap="round" stroke-linejoin="round"/><path d="M6.413 29.093c-.8-.24-1.56-.68-2.186-1.32a5.114 5.114 0 01-1.32-2.187 5.36 5.36 0 003.506 3.507z" stroke="#E7BDA9" stroke-width="1.5" stroke-linecap="round" stroke-linejoin="round"/><path d="M8 25.333a1.333 1.333 0 100-2.667 1.333 1.333 0 000 2.667z" stroke="#fff" stroke-width="1.5" stroke-linecap="round" stroke-linejoin="round"/></svg> 25.7865 2.90665 25.5865C2.85331 25.4132 2.81331 25.2398 2.77331 25.0665C2.70664 24.7198 2.66666 24.3598 2.66666 23.9998V5.99984C2.66666 3.99984 3.99999 2.6665 5.99999 2.6665H9.99999C12 2.6665 13.3333 3.99984 13.3333 5.99984Z" stroke="#E7BDA9" stroke-width="1.5" stroke-linecap="round" stroke-linejoin="round"/>
<path d="M6.41326 29.0931C5.61326 28.8531 4.85328 28.4131 4.22661 27.7731C3.58661 27.1464 3.14659 26.3864 2.90659 25.5864C3.42659 27.2531 4.74659 28.5731 6.41326 29.0931Z" stroke="#E7BDA9" stroke-width="1.5" stroke-linecap="round" stroke-linejoin="round"/>
<path d="M7.99999 25.3332C8.73637 25.3332 9.33332 24.7362 9.33332 23.9998C9.33332 23.2635 8.73637 22.6665 7.99999 22.6665C7.26361 22.6665 6.66666 23.2635 6.66666 23.9998C6.66666 24.7362 7.26361 25.3332 7.99999 25.3332Z" stroke="white" stroke-width="1.5" stroke-linecap="round" stroke-linejoin="round"/>
</svg>