<svg width="32" height="32" viewBox="0 0 32 32" fill="none" xmlns="http://www.w3.org/2000/svg">
<path d="M28.6266 25.3332V6.6665C28.6266 3.99984 27.2933 2.6665 24.6266 2.6665H19.2933C16.6266 2.6665 15.2933 3.99984 15.2933 6.6665V25.3332C15.2933 27.9998 16.6266 29.3332 19.2933 29.3332H24.6266C27.2933 29.3332 28.6266 27.9998 28.6266 25.3332Z" stroke="#E7BDA9" stroke-width="1.5" stroke-linecap="round"/>
<path d="M15.2933 8H21.9599" stroke="white" stroke-width="1.5" stroke-linecap="round"/>
<path d="M15.2933 24H20.6266" stroke="white" stroke-width="1.5" stroke-linecap="round"/>
<path d="M15.2933 18.6001L21.9599 18.6668" stroke="white" stroke-width="1.5" stroke-linecap="round"/>
<path d="M15.2933 13.3335H19.2933" stroke="white" stroke-width="1.5" stroke-linecap="round"/>
<path d="M7.32002 2.6665C5.14669 2.6665 3.37335 4.43984 3.37335 6.59984V23.8798C3.37335 24.4798 3.62669 25.3865 3.93335 25.9065L5.02669 27.7198C6.28002 29.8132 8.34669 29.8132 9.60002 27.7198L10.6934 25.9065C11 25.3865 11.2534 24.4798 11.2534 23.8798V6.59984C11.2534 4.43984 9.48002 2.6665 7.32002 2.6665Z" stroke="#E7BDA9" stroke-width="1.5" stroke-linecap="round"/>
<path d="M11.2534 9.3335H3.37335" stroke="#E7BDA9" stroke-width="1.5" stroke-linecap="round"/>
</svg>