<?xml version="1.0" encoding="utf-8"?><svg width="814" height="136" fill="none" xmlns="http://www.w3.org/2000/svg" viewBox="0 0 814 136"><g clip-path="url(#gclip0_405_5178)" fill="currentColor"><path d="M751.174 0c16.762 0 31.31 6.379 43.58 19.138 12.303 12.76 18.455 28.674 18.455 47.78 0 19.659-6.184 35.964-18.584 48.952-12.367 12.985-27.373 19.462-44.981 19.462-17.771 0-32.71-6.347-44.817-19.007-12.109-12.661-18.162-29.032-18.162-49.147 0-20.537 6.998-37.299 20.961-50.286C719.765 5.63 734.282 0 751.174 0zm-1.822 6.836c-11.523 0-20.798 4.296-27.763 12.887-8.691 10.709-13.052 26.365-13.052 47 0 21.123 4.491 37.397 13.507 48.787 6.933 8.659 16.046 12.988 27.405 12.988 12.14 0 22.132-4.753 30.041-14.224 7.909-9.503 11.848-24.443 11.848-44.883 0-22.165-4.362-38.699-13.052-49.57-6.965-8.657-16.599-12.985-28.934-12.985zM578.157 60.734V9.959h28.447c6.736 0 11.683.65 14.906 1.92 3.19 1.27 5.891 3.354 8.104 6.186 2.182 2.83 4.101 7.289 5.761 13.376h3.32l-1.366-28.512h-96.081v3.515h4.59c3.124 0 6.053.748 8.787 2.278 1.985 1.14 3.287 2.506 3.939 4.102.814 2.082 1.236 6.41 1.236 12.954v83.776c0 7.747-.748 12.629-2.278 14.679-2.441 3.092-6.315 4.654-11.684 4.654h-4.59v3.515h55.461v-3.515h-4.621c-3.06 0-5.957-.749-8.723-2.278-2.018-1.139-3.353-2.506-3.971-4.102-.814-2.082-1.237-6.411-1.237-12.953V68.74h23.434c4.361 0 7.616.586 9.829 1.79 2.214 1.171 3.938 2.929 5.208 5.305 1.237 2.343 1.888 6.054 1.953 11.066h3.515V42.962h-3.515c-.846 7.161-2.507 11.88-5.045 14.256-2.506 2.343-6.509 3.516-11.945 3.516h-23.434zM412.04 60.734V9.959h28.447c6.737 0 11.684.65 14.906 1.92 3.19 1.27 5.891 3.354 8.105 6.186 2.18 2.83 4.101 7.289 5.761 13.376h3.32l-1.368-28.512h-96.079v3.515h4.588c3.125 0 6.055.748 8.788 2.278 1.986 1.14 3.288 2.506 3.939 4.102.813 2.082 1.237 6.41 1.237 12.954v83.776c0 7.747-.749 12.629-2.28 14.679-2.44 3.092-6.313 4.654-11.684 4.654h-4.588v3.515h55.46v-3.515h-4.622c-3.059 0-5.955-.749-8.723-2.278-2.017-1.139-3.351-2.506-3.97-4.102-.813-2.082-1.237-6.411-1.237-12.953V68.74h23.435c4.36 0 7.616.586 9.829 1.79 2.212 1.171 3.938 2.929 5.207 5.305 1.237 2.343 1.888 6.054 1.953 11.066h3.515V42.962h-3.515c-.846 7.161-2.506 11.88-5.044 14.256-2.506 2.343-6.51 3.516-11.945 3.516H412.04zM236.028 61.124V9.959h35.478c6.411 0 10.903.489 13.441 1.433 3.157 1.366 5.567 3.32 7.193 5.891 1.627 2.57 3.093 7.29 4.427 14.158h3.71L298.91 2.929h-99.791v3.515h4.59c5.37 0 9.178 1.27 11.49 3.808 1.659 1.888 2.473 6.933 2.473 15.135v84.167c0 6.315-.359 10.481-1.108 12.531-.715 2.05-2.115 3.581-4.165 4.59-2.734 1.463-5.631 2.212-8.69 2.212h-4.59v3.515h99.758l11.164-32.416h-3.905c-4.134 7.941-8.169 13.898-12.108 17.835-3.027 2.994-6.216 5.013-9.504 6.022-3.319 1.009-8.625 1.53-15.916 1.53h-21.905c-3.547 0-5.988-.359-7.257-1.107-1.27-.716-2.148-1.725-2.67-2.963-.488-1.236-.748-4.718-.748-10.447V68.154h28.513c5.402 0 9.405.651 12.009 1.92 2.604 1.27 4.491 3.027 5.631 5.24.878 1.79 1.79 5.86 2.669 12.173h3.514v-45.11h-3.514c-.391 7.355-2.213 12.498-5.533 15.427-2.474 2.214-7.389 3.32-14.776 3.32h-28.513zM52.63 2.93c19.332 0 34.045 2.18 44.101 6.575 10.09 4.394 18.194 11.717 24.313 21.97 6.152 10.253 9.211 22.1 9.211 35.51 0 18.03-5.468 33.066-16.403 45.174-12.271 13.508-30.953 20.244-56.08 20.244H0v-3.514h4.85c5.467 0 9.34-1.758 11.619-5.241 1.4-2.082 2.083-6.801 2.083-14.092V25.779c0-8.073-.878-13.116-2.67-15.135C13.41 7.845 9.732 6.445 4.85 6.445H0V2.93h52.63zm3.774 7.225c-5.695 0-12.205.913-19.496 2.768V122.9c8.073 1.79 14.81 2.669 20.277 2.669 14.712 0 26.918-5.176 36.65-15.557 9.699-10.35 14.549-24.412 14.549-42.15 0-17.868-4.85-31.96-14.549-42.246-9.732-10.317-22.198-15.46-37.43-15.46z"/></g><defs><clipPath id="gclip0_405_5178"><path fill="currentColor" d="M0 0h813.209v135.332H0z"/></clipPath></defs></svg>