<?xml version="1.0" encoding="utf-8"?><svg width="17" height="17" fill="none" xmlns="http://www.w3.org/2000/svg" viewBox="0 0 17 17"><path d="M15.732 15.252l.37.336-.37-.336zm-1.312.944l-.19-.463-.002.002.192.461zM7.5 14.332l-.295.404.295-.404zm-2.624-2.24l-.355.352.003.003.352-.355zM2.644 9.476l-.406.292.002.002.404-.294zM1.076 6.748l-.46.194v.001l.46-.195zm-.288-4.16l.464.186.001-.003-.465-.183zm.92-1.336l.343.364.008-.008-.351-.356zM4.02.644l-.216.45.006.004.21-.454zm.536.448l-.411.285.003.004.408-.289zm1.856 2.616l-.408.29.002.002.406-.292zm.32.56l-.463.19.003.007.46-.197zm-.056 1.056l-.427-.26-.004.007-.004.007.435.246zm-.448.568l-.354-.354-.006.007.36.347zm-.608.632l.354.354.006-.007-.36-.347zm-.104.504l-.485.121.007.028.01.027.468-.176zm.064.16l-.474.158.014.042.021.04.439-.24zm.744 1.024l-.382.323.004.004.378-.327zm1.16 1.264l-.357.35.007.007.35-.357zm1.272 1.176l-.324.381h.001l.323-.381zm1.032.736l-.234.442.024.012.024.01.186-.464zm.144.064l-.197.46.01.004.011.004.176-.468zm.528-.104l-.351-.356-.003.002.354.354zm.608-.6l.351.356.003-.002-.354-.354zm.576-.448l.231.443.015-.007.014-.009-.26-.427zm1.616.248l.29-.408-.009-.006-.281.414zm2.648 1.88l-.29.408.005.003.285-.411zm.44.512l.464-.186-.003-.008-.003-.007-.458.201zM13.2 6.1a.5.5 0 001 0h-1zm-.436-1.816l-.367.34.002.001.365-.341zM10.9 2.8a.5.5 0 000 1v-1zM16 6.1a.5.5 0 001 0h-1zM10.9 0a.5.5 0 000 1V0zm5.576 13.564h-.5c0 .213-.047.436-.152.659l.452.213.452.213c.167-.353.248-.722.248-1.085h-.5zm-.2.872l-.452-.213a2.8 2.8 0 01-.463.693l.371.336.37.336c.267-.295.47-.608.626-.938l-.452-.214zm-.544.816l-.37-.336c-.348.383-.72.649-1.132.817l.19.463.19.463a4.108 4.108 0 001.492-1.071l-.37-.336zm-1.312.944l-.192-.462A3.519 3.519 0 0112.86 16v1c.623 0 1.21-.116 1.752-.343l-.192-.461zm-1.56.304V16c-.737 0-1.542-.173-2.412-.544l-.196.46-.196.46c.97.413 1.909.624 2.804.624v-.5zm-2.608-.584l.196-.46a13.556 13.556 0 01-2.654-1.528l-.294.404-.294.404c.939.684 1.892 1.232 2.85 1.64l.196-.46zM7.5 14.332l.295-.404a22.488 22.488 0 01-2.567-2.191l-.352.355-.352.355c.85.841 1.74 1.602 2.681 2.289l.295-.404zm-2.624-2.24l.355-.352a22.231 22.231 0 01-2.183-2.558l-.404.294-.404.294a23.23 23.23 0 002.28 2.674l.356-.352zM2.644 9.476l.406-.292c-.638-.887-1.147-1.767-1.514-2.631l-.46.195-.46.195c.4.944.949 1.889 1.622 2.825l.406-.292zM1.076 6.748l.46-.194C1.175 5.692 1 4.886 1 4.132H0c0 .91.21 1.848.615 2.81l.461-.194zM.5 4.132H1c0-.485.085-.941.252-1.358l-.464-.186-.464-.186A4.638 4.638 0 000 4.132h.5zm.288-1.544l.465.183c.164-.415.424-.803.798-1.155l-.343-.364-.343-.364A4.182 4.182 0 00.323 2.405l.465.183zm.92-1.336l.35.356C2.496 1.178 2.936 1 3.373 1V0c-.747 0-1.427.317-2.015.896l.351.356zM3.372.5V1c.154 0 .303.033.432.095L4.02.644l.216-.45A2.003 2.003 0 003.372 0v.5zm.648.144l-.21.454c.134.062.246.15.335.279l.411-.285.411-.285A1.804 1.804 0 004.23.19l-.21.454zm.536.448l-.408.29 1.856 2.615.408-.289.408-.29L4.964.804l-.408.289zm1.856 2.616L6.006 4c.126.175.209.325.263.457l.463-.189.463-.19a3.234 3.234 0 00-.377-.662l-.406.292zm.32.56l-.46.197a.774.774 0 01.072.291h1c0-.236-.06-.471-.152-.685l-.46.197zm.112.488h-.5a.588.588 0 01-.095.308l.427.26.427.26c.155-.254.241-.535.241-.828h-.5zm-.168.568l-.435-.246a2.23 2.23 0 01-.367.46l.354.354.354.354c.214-.215.397-.443.53-.676l-.436-.246zm-.448.568l-.36-.347-.608.632.36.347.36.347.608-.632-.36-.347zm-.608.632l-.354-.354a.927.927 0 00-.274.674h1c0-.011.002-.005-.004.01a.096.096 0 01-.01.017l-.004.007-.354-.354zm-.128.32h-.5c0 .111.015.208.039.305l.485-.121.485-.121a.231.231 0 01-.009-.063h-.5zm.024.184l-.468.176c.016.043.033.082.043.105a.655.655 0 01.015.037l.474-.158.474-.158c-.015-.045-.032-.086-.043-.11-.012-.03-.02-.047-.027-.068l-.468.176zm.064.16l-.439.24c.168.307.44.68.801 1.107l.382-.323.382-.323c-.343-.406-.567-.72-.687-.94l-.439.239zm.744 1.024l-.378.327c.365.422.756.854 1.181 1.287l.357-.35.357-.35c-.407-.415-.784-.831-1.139-1.241l-.378.327zm1.16 1.264l-.35.357c.436.428.861.83 1.298 1.2l.324-.381.324-.381a23.6 23.6 0 01-1.246-1.152l-.35.357zm1.272 1.176l-.323.382c.43.364.805.629 1.121.796l.234-.442.234-.442c-.228-.12-.542-.336-.943-.676l-.323.382zm1.032.736l-.186.464.044.02.089.04.197-.46.197-.46-.067-.03a1.917 1.917 0 00-.088-.038l-.186.464zm.144.064l-.176.468c.138.052.265.064.376.064v-1a.189.189 0 01-.028-.001h.004l-.176.469zm.2.032v.5a.94.94 0 00.682-.282l-.354-.354-.354-.354c-.003.004-.003.004 0 .002a.078.078 0 01.028-.012h-.002v.5zm.328-.136l.351.356.608-.6-.351-.356-.351-.356-.608.6.351.356zm.608-.6l.354.354c.18-.18.33-.295.453-.359l-.231-.443-.231-.443a2.945 2.945 0 00-.699.537l.354.354zm.576-.448l.26.427a.567.567 0 01.308-.095v-1c-.303 0-.575.087-.828.24l.26.428zm.568-.168v.5a.78.78 0 01.299.067l.189-.463.19-.463a1.775 1.775 0 00-.678-.141v.5zm.488.104l-.19.463a2.6 2.6 0 01.469.262l.281-.413.281-.414a3.59 3.59 0 00-.652-.36l-.189.462zm.56.312l-.29.408 2.648 1.88.29-.408.29-.408-2.649-1.88-.289.408zm2.648 1.88l-.285.411c.144.1.222.199.267.302l.458-.201.458-.201a1.713 1.713 0 00-.613-.722l-.285.411zm.44.512l-.464.186c.061.154.092.29.092.438h1c0-.3-.066-.564-.164-.81l-.464.186zM13.7 6.1h.5c0-.353-.132-.74-.313-1.092a4.835 4.835 0 00-.758-1.065l-.365.341-.365.341c.25.268.457.565.598.84.147.287.203.508.203.635h.5zm-.936-1.816l.367-.34C12.577 3.347 11.773 2.8 10.9 2.8v1c.47 0 1.027.317 1.497.824l.367-.34zM16.5 6.1h.5C17 2.728 14.272 0 10.9 0v1C13.72 1 16 3.28 16 6.1h.5z" fill="currentColor"/></svg>