<?xml version="1.0" encoding="utf-8"?><svg width="18" height="15" fill="none" xmlns="http://www.w3.org/2000/svg" viewBox="0 0 18 15"><path d="M.266 6.933C2.07 5.92 4.083 5.073 5.964 4.222 9.2 2.828 12.45 1.459 15.732.184c.638-.217 1.785-.43 1.898.537-.062 1.367-.315 2.726-.489 4.086-.441 2.989-.951 5.968-1.448 8.948-.172.992-1.39 1.506-2.169.87-1.873-1.29-3.76-2.57-5.609-3.89-.605-.629-.044-1.531.497-1.98 1.543-1.551 3.178-2.87 4.64-4.502.395-.972-.77-.153-1.155.098C9.786 5.837 7.726 7.413 5.5 8.72c-1.137.639-2.462.093-3.6-.264C.882 8.025-.612 7.59.267 6.933z" fill="currentColor"/></svg>