<svg width="16" height="16" viewBox="0 0 16 16" fill="none" xmlns="http://www.w3.org/2000/svg"><path d="M5.386 14.88c.155.187.006.47-.23.437-2.303-.341-3.556-2.293-3.556-4.176C1.6 7.333 6.138 5.888 6.186.8c0-.213.235-.341.416-.224 2.4 1.547 4.427 5.141 4.592 7.957.016.23.283.347.448.182.47-.47.774-1.606.81-2.342.012-.218.273-.32.444-.176 1.002.848 1.77 2.582 1.77 4.203 0 1.328-1.882 4.613-5.76 4.944a.265.265 0 01-.234-.427c.89-1.109 2.597-4.09-1.36-7.28-.16-.128-.39-.026-.422.171-.32 1.92-2.464 2.443-2.464 4.384 0 1.275.55 2.181.976 2.688h-.016z" fill="#fff"/></svg>